<?xml version="1.0" encoding="UTF-8" standalone="no"?>
<!DOCTYPE svg PUBLIC "-//W3C//DTD SVG 1.1//EN"
 "http://www.w3.org/Graphics/SVG/1.1/DTD/svg11.dtd">
<!-- Generated by graphviz version 2.38.0 (20140413.2041)
 -->
<!-- Title: G Pages: 1 -->
<svg width="462pt" height="362pt"
 viewBox="0.00 0.00 462.00 362.00" xmlns="http://www.w3.org/2000/svg" xmlns:xlink="http://www.w3.org/1999/xlink">
<g id="graph0" class="graph" transform="scale(1 1) rotate(0) translate(4 358)">
<title>G</title>
<polygon fill="white" stroke="none" points="-4,4 -4,-358 458,-358 458,4 -4,4"/>
<g id="clust1" class="cluster"><title>cluster_m2n</title>
<polygon fill="none" stroke="black" points="10.5,-229 10.5,-304 114.5,-304 114.5,-229 10.5,-229"/>
<text text-anchor="middle" x="62.5" y="-288.8" font-family="Times,serif" font-size="14.00">Communicators</text>
</g>
<g id="clust2" class="cluster"><title>cluster_cpl</title>
<polygon fill="none" stroke="black" points="3,-69 3,-144 122,-144 122,-69 3,-69"/>
<text text-anchor="middle" x="62.5" y="-128.8" font-family="Times,serif" font-size="14.00">Coupling Schemes</text>
</g>
<g id="clust3" class="cluster"><title>cluster_Fluid</title>
<polygon fill="none" stroke="black" stroke-width="2" points="143,-198 143,-346 446,-346 446,-198 143,-198"/>
<text text-anchor="middle" x="294.5" y="-330.8" font-family="Times,serif" font-size="14.00">Fluid</text>
</g>
<g id="clust4" class="cluster"><title>cluster_Solid</title>
<polygon fill="none" stroke="black" stroke-width="2" points="143,-8 143,-156 446,-156 446,-8 143,-8"/>
<text text-anchor="middle" x="294.5" y="-140.8" font-family="Times,serif" font-size="14.00">Solid</text>
</g>
<!-- m2n&#45;Solid&#45;Fluid -->
<g id="node1" class="node"><title>m2n&#45;Solid&#45;Fluid</title>
<polygon fill="none" stroke="black" points="90.5,-273 34.5,-273 34.5,-269 30.5,-269 30.5,-265 34.5,-265 34.5,-245 30.5,-245 30.5,-241 34.5,-241 34.5,-237 90.5,-237 90.5,-273"/>
<polyline fill="none" stroke="black" points="34.5,-269 38.5,-269 38.5,-265 34.5,-265 "/>
<polyline fill="none" stroke="black" points="34.5,-245 38.5,-245 38.5,-241 34.5,-241 "/>
<text text-anchor="middle" x="62.5" y="-251.3" font-family="Times,serif" font-size="14.00">sockets</text>
</g>
<!-- Fluid -->
<g id="node3" class="node"><title>Fluid</title>
<polygon fill="none" stroke="#0173b2" points="222.797,-276.544 222.797,-291.456 204.171,-302 177.829,-302 159.203,-291.456 159.203,-276.544 177.829,-266 204.171,-266 222.797,-276.544"/>
<polygon fill="none" stroke="#0173b2" points="226.815,-274.217 226.815,-293.783 205.233,-306 176.767,-306 155.185,-293.783 155.185,-274.217 176.767,-262 205.233,-262 226.815,-274.217"/>
<text text-anchor="middle" x="191" y="-280.3" font-family="Times,serif" font-size="14.00">Fluid</text>
</g>
<!-- m2n&#45;Solid&#45;Fluid&#45;&gt;Fluid -->
<g id="edge8" class="edge"><title>m2n&#45;Solid&#45;Fluid&#45;&gt;Fluid</title>
<path fill="none" stroke="#0173b2" d="M100.398,-263.459C110.755,-265.833 122.26,-268.471 133.479,-271.043"/>
<polygon fill="#0173b2" stroke="#0173b2" points="101.167,-260.044 90.6374,-261.221 99.6025,-266.867 101.167,-260.044"/>
<polygon fill="#0173b2" stroke="#0173b2" points="132.7,-274.455 143.229,-273.278 134.264,-267.632 132.7,-274.455"/>
</g>
<!-- Solid -->
<g id="node6" class="node"><title>Solid</title>
<polygon fill="none" stroke="#de8f05" points="222.797,-39.5442 222.797,-54.4558 204.171,-65 177.829,-65 159.203,-54.4558 159.203,-39.5442 177.829,-29 204.171,-29 222.797,-39.5442"/>
<polygon fill="none" stroke="#de8f05" points="226.815,-37.2171 226.815,-56.7829 205.233,-69 176.767,-69 155.185,-56.7829 155.185,-37.2171 176.767,-25 205.233,-25 226.815,-37.2171"/>
<text text-anchor="middle" x="191" y="-43.3" font-family="Times,serif" font-size="14.00">Solid</text>
</g>
<!-- m2n&#45;Solid&#45;Fluid&#45;&gt;Solid -->
<g id="edge7" class="edge"><title>m2n&#45;Solid&#45;Fluid&#45;&gt;Solid</title>
<path fill="none" stroke="#de8f05" d="M80.3848,-227.896C93.0606,-206.722 110.194,-176.246 122,-148 133.107,-121.426 125.785,-107.431 137.5,-86.432"/>
<polygon fill="#de8f05" stroke="#de8f05" points="77.2708,-226.281 75.082,-236.648 83.2576,-229.909 77.2708,-226.281"/>
<polygon fill="#de8f05" stroke="#de8f05" points="140.468,-88.2879 143,-78 134.605,-84.4635 140.468,-88.2879"/>
</g>
<!-- cpl&#45;Fluid&#45;Solid -->
<g id="node2" class="node"><title>cpl&#45;Fluid&#45;Solid</title>
<polygon fill="none" stroke="black" points="109,-113 16,-113 16,-109 12,-109 12,-105 16,-105 16,-85 12,-85 12,-81 16,-81 16,-77 109,-77 109,-113"/>
<polyline fill="none" stroke="black" points="16,-109 20,-109 20,-105 16,-105 "/>
<polyline fill="none" stroke="black" points="16,-85 20,-85 20,-81 16,-81 "/>
<text text-anchor="middle" x="62.5" y="-91.3" font-family="Times,serif" font-size="14.00">serial&#45;implicit</text>
</g>
<!-- cpl&#45;Fluid&#45;Solid&#45;&gt;Fluid -->
<g id="edge9" class="edge"><title>cpl&#45;Fluid&#45;Solid&#45;&gt;Fluid</title>
<path fill="none" stroke="#0173b2" d="M71.2583,-113.264C85.4841,-146.271 116.166,-215.179 136.717,-244.843"/>
<polygon fill="#0173b2" stroke="#0173b2" points="134.125,-247.213 143,-253 139.671,-242.942 134.125,-247.213"/>
<text text-anchor="middle" x="82.2583" y="-113.314" font-family="Times,serif" font-size="14.00">first</text>
</g>
<!-- cpl&#45;Fluid&#45;Solid&#45;&gt;Solid -->
<g id="edge10" class="edge"><title>cpl&#45;Fluid&#45;Solid&#45;&gt;Solid</title>
<path fill="none" stroke="#de8f05" d="M109.169,-77.6709C117.104,-74.6602 125.439,-71.4973 133.62,-68.3933"/>
<polygon fill="#de8f05" stroke="#de8f05" points="135.01,-71.6092 143.118,-64.7891 132.527,-65.0645 135.01,-71.6092"/>
<text text-anchor="middle" x="128.169" y="-66.4709" font-family="Times,serif" font-size="14.00">second</text>
</g>
<!-- Fluid&#45;Fluid&#45;Mesh -->
<g id="node4" class="node"><title>Fluid&#45;Fluid&#45;Mesh</title>
<polygon fill="none" stroke="#0173b2" points="438,-261 358,-261 358,-225 438,-225 438,-261"/>
<text text-anchor="middle" x="398" y="-239.3" font-family="Times,serif" font-size="14.00">Fluid&#45;Mesh</text>
</g>
<!-- Fluid&#45;&gt;Fluid&#45;Fluid&#45;Mesh -->
<g id="edge2" class="edge"><title>Fluid&#45;&gt;Fluid&#45;Fluid&#45;Mesh</title>
<g id="a_edge2"><a xlink:title="scalar">
<path fill="none" stroke="#0173b2" d="M219.508,-269.911C228.674,-265.769 239.081,-261.644 249,-259 281.138,-250.433 318.366,-246.436 347.445,-244.579"/>
<polygon fill="#0173b2" stroke="#0173b2" points="347.982,-248.054 357.765,-243.987 347.581,-241.066 347.982,-248.054"/>
</a>
</g>
<text text-anchor="middle" x="294.5" y="-262.8" font-family="Times,serif" font-size="14.00">Temperature</text>
</g>
<!-- Fluid&#45;Fluid&#45;Mesh&#45;&gt;Fluid -->
<g id="edge1" class="edge"><title>Fluid&#45;Fluid&#45;Mesh&#45;&gt;Fluid</title>
<g id="a_edge1"><a xlink:title="scalar">
<path fill="none" stroke="#0173b2" d="M373.629,-261.089C363.794,-267.672 351.886,-274.38 340,-278 306.551,-288.186 266.883,-289.244 237.038,-287.998"/>
<polygon fill="#0173b2" stroke="#0173b2" points="237.086,-284.495 226.918,-287.472 236.723,-291.486 237.086,-284.495"/>
</a>
</g>
<text text-anchor="middle" x="294.5" y="-291.8" font-family="Times,serif" font-size="14.00">Heat&#45;Flux</text>
</g>
<!-- Solid&#45;Fluid&#45;Mesh -->
<g id="node7" class="node"><title>Solid&#45;Fluid&#45;Mesh</title>
<polygon fill="none" stroke="#0173b2" stroke-dasharray="5,2" points="231,-125 151,-125 151,-87 231,-87 231,-125"/>
<text text-anchor="middle" x="191" y="-109.8" font-family="Times,serif" font-size="14.00">Fluid&#45;Mesh</text>
<text text-anchor="middle" x="191" y="-94.8" font-family="Times,serif" font-size="14.00">from Fluid</text>
</g>
<!-- Fluid&#45;Fluid&#45;Mesh&#45;&gt;Solid&#45;Fluid&#45;Mesh -->
<g id="edge11" class="edge"><title>Fluid&#45;Fluid&#45;Mesh&#45;&gt;Solid&#45;Fluid&#45;Mesh</title>
<g id="a_edge11"><a xlink:title="scalar">
<path fill="none" stroke="#0173b2" d="M391.316,-224.895C383.406,-202.699 366.934,-165.51 340,-145 337.939,-143.43 283.436,-129.293 241.167,-118.486"/>
<polygon fill="#0173b2" stroke="#0173b2" points="241.826,-115.042 231.271,-115.96 240.094,-121.825 241.826,-115.042"/>
</a>
</g>
<text text-anchor="middle" x="294.5" y="-148.8" font-family="Times,serif" font-size="14.00">Temperature</text>
</g>
<!-- Fluid&#45;Solid&#45;Mesh -->
<g id="node5" class="node"><title>Fluid&#45;Solid&#45;Mesh</title>
<polygon fill="none" stroke="#de8f05" stroke-dasharray="5,2" points="231,-244 151,-244 151,-206 231,-206 231,-244"/>
<text text-anchor="middle" x="191" y="-228.8" font-family="Times,serif" font-size="14.00">Solid&#45;Mesh</text>
<text text-anchor="middle" x="191" y="-213.8" font-family="Times,serif" font-size="14.00">from Solid</text>
</g>
<!-- Fluid&#45;Solid&#45;Mesh&#45;&gt;Fluid&#45;Fluid&#45;Mesh -->
<g id="edge3" class="edge"><title>Fluid&#45;Solid&#45;Mesh&#45;&gt;Fluid&#45;Fluid&#45;Mesh</title>
<path fill="none" stroke="black" d="M231.199,-221.763C261.175,-220.068 303.432,-219.363 340,-225 342.649,-225.408 345.344,-225.917 348.048,-226.503"/>
<polygon fill="black" stroke="black" points="347.27,-229.916 357.817,-228.913 348.947,-223.12 347.27,-229.916"/>
<text text-anchor="middle" x="294.5" y="-228.8" font-family="Times,serif" font-size="14.00">nearest&#45;neighbor</text>
</g>
<!-- Solid&#45;Solid&#45;Mesh -->
<g id="node8" class="node"><title>Solid&#45;Solid&#45;Mesh</title>
<polygon fill="none" stroke="#de8f05" points="438,-107 358,-107 358,-71 438,-71 438,-107"/>
<text text-anchor="middle" x="398" y="-85.3" font-family="Times,serif" font-size="14.00">Solid&#45;Mesh</text>
</g>
<!-- Solid&#45;&gt;Solid&#45;Solid&#45;Mesh -->
<g id="edge5" class="edge"><title>Solid&#45;&gt;Solid&#45;Solid&#45;Mesh</title>
<g id="a_edge5"><a xlink:title="scalar">
<path fill="none" stroke="#de8f05" d="M226.75,-53.4965C256.781,-59.1856 301.323,-67.8021 340,-76 342.61,-76.5531 345.284,-77.1297 347.983,-77.719"/>
<polygon fill="#de8f05" stroke="#de8f05" points="347.267,-81.1452 357.787,-79.8901 348.78,-74.3108 347.267,-81.1452"/>
</a>
</g>
<text text-anchor="middle" x="294.5" y="-79.8" font-family="Times,serif" font-size="14.00">Heat&#45;Flux</text>
</g>
<!-- Solid&#45;Fluid&#45;Mesh&#45;&gt;Solid&#45;Solid&#45;Mesh -->
<g id="edge6" class="edge"><title>Solid&#45;Fluid&#45;Mesh&#45;&gt;Solid&#45;Solid&#45;Mesh</title>
<path fill="none" stroke="black" d="M231.041,-102.762C264.136,-100.018 311.781,-96.067 347.539,-93.1017"/>
<polygon fill="black" stroke="black" points="348.079,-96.569 357.755,-92.2544 347.5,-89.5929 348.079,-96.569"/>
<text text-anchor="middle" x="294.5" y="-104.8" font-family="Times,serif" font-size="14.00">nearest&#45;neighbor</text>
</g>
<!-- Solid&#45;Solid&#45;Mesh&#45;&gt;Fluid&#45;Solid&#45;Mesh -->
<g id="edge12" class="edge"><title>Solid&#45;Solid&#45;Mesh&#45;&gt;Fluid&#45;Solid&#45;Mesh</title>
<g id="a_edge12"><a xlink:title="scalar">
<path fill="none" stroke="#de8f05" d="M386.958,-107.269C376.962,-123.993 360.218,-148.44 340,-164 337.844,-165.66 282.908,-188.13 240.594,-205.32"/>
<polygon fill="#de8f05" stroke="#de8f05" points="239.187,-202.113 231.238,-209.118 241.82,-208.599 239.187,-202.113"/>
</a>
</g>
<text text-anchor="middle" x="294.5" y="-204.8" font-family="Times,serif" font-size="14.00">Heat&#45;Flux</text>
</g>
<!-- Solid&#45;Solid&#45;Mesh&#45;&gt;Solid -->
<g id="edge4" class="edge"><title>Solid&#45;Solid&#45;Mesh&#45;&gt;Solid</title>
<g id="a_edge4"><a xlink:title="scalar">
<path fill="none" stroke="#de8f05" d="M384.072,-70.9421C373.772,-58.2196 358.108,-42.2157 340,-35 306.436,-21.6257 265.262,-26.4927 234.871,-33.6362"/>
<polygon fill="#de8f05" stroke="#de8f05" points="233.846,-30.285 225.005,-36.123 235.557,-37.0728 233.846,-30.285"/>
</a>
</g>
<text text-anchor="middle" x="294.5" y="-38.8" font-family="Times,serif" font-size="14.00">Temperature</text>
</g>
</g>
</svg>
